<svg xmlns="http://www.w3.org/2000/svg" viewBox="0 0 820 150" width="100%" height="auto" style="max-width: 820px; font-family: Pretendard, -apple-system, BlinkMacSystemFont, Segoe UI, Roboto, sans-serif;">
  <defs>
    <filter id="softShadow" x="-5%" y="-10%" width="110%" height="130%">
      <feDropShadow dx="0" dy="3" stdDeviation="4" flood-color="#0f172a" flood-opacity="0.06"/>
    </filter>
    <filter id="cardHover" x="-5%" y="-10%" width="110%" height="130%">
      <feDropShadow dx="0" dy="4" stdDeviation="6" flood-color="#2563eb" flood-opacity="0.12"/>
    </filter>
    <marker id="arrowBlue" viewBox="0 0 10 10" refX="6" refY="5" markerWidth="6" markerHeight="6" orient="auto-start-reverse">
      <path d="M 0 1.5 L 8 5 L 0 8.5 z" fill="#2563eb" />
    </marker>
    <marker id="arrowGreen" viewBox="0 0 10 10" refX="6" refY="5" markerWidth="6" markerHeight="6" orient="auto-start-reverse">
      <path d="M 0 1.5 L 8 5 L 0 8.5 z" fill="#059669" />
    </marker>
    <marker id="arrowAmber" viewBox="0 0 10 10" refX="6" refY="5" markerWidth="6" markerHeight="6" orient="auto-start-reverse">
      <path d="M 0 1.5 L 8 5 L 0 8.5 z" fill="#d97706" />
    </marker>
    <marker id="arrowRed" viewBox="0 0 10 10" refX="6" refY="5" markerWidth="6" markerHeight="6" orient="auto-start-reverse">
      <path d="M 0 1.5 L 8 5 L 0 8.5 z" fill="#dc2626" />
    </marker>
    <marker id="arrowPurple" viewBox="0 0 10 10" refX="6" refY="5" markerWidth="6" markerHeight="6" orient="auto-start-reverse">
      <path d="M 0 1.5 L 8 5 L 0 8.5 z" fill="#7c3aed" />
    </marker>
  </defs>

  <rect width="100%" height="100%" rx="14" fill="#f8fafc" stroke="#e2e8f0" stroke-width="1.5" />
  
  <g transform="translate(24, 28)">
    <circle cx="5" cy="0" r="4" fill="#2563eb" />
    <text x="16" y="4" fill="#334155" font-size="13" font-weight="700">다이어그램 4.1: 방송 실무 즉시 적용 가능한 바이브 코딩 솔루션</text>
  </g>

  
  <g transform="translate(25, 48)">
    <rect x="0" y="0" width="370" height="60" rx="8" fill="#eff6ff" stroke="#93c5fd" stroke-width="1.5"/>
    <text x="16" y="26" fill="#1d4ed8" font-size="12" font-weight="700">⭐ 바이브 코딩으로 해결하는 영역:</text>
    <text x="16" y="46" fill="#2563eb" font-size="11">수어 대본 자동 맞춤법 검사, 용어 사전 연동 웹앱</text>

    <rect x="395" y="0" width="375" height="60" rx="8" fill="#ecfdf5" stroke="#6ee7b7" stroke-width="1.5"/>
    <text x="411" y="26" fill="#065f46" font-size="12" font-weight="700">✅ 실제 얻는 효과:</text>
    <text x="411" y="46" fill="#059669" font-size="11">위험한 무검수 대신 실무 작업 시간 90% 단축</text>
  </g>

</svg>