<svg xmlns="http://www.w3.org/2000/svg" viewBox="0 0 820 150" width="100%" height="auto" style="max-width: 820px; font-family: Pretendard, -apple-system, BlinkMacSystemFont, Segoe UI, Roboto, sans-serif;">
  <defs>
    <filter id="softShadow" x="-5%" y="-10%" width="110%" height="130%">
      <feDropShadow dx="0" dy="3" stdDeviation="4" flood-color="#0f172a" flood-opacity="0.06"/>
    </filter>
    <filter id="cardHover" x="-5%" y="-10%" width="110%" height="130%">
      <feDropShadow dx="0" dy="4" stdDeviation="6" flood-color="#2563eb" flood-opacity="0.12"/>
    </filter>
    <marker id="arrowBlue" viewBox="0 0 10 10" refX="6" refY="5" markerWidth="6" markerHeight="6" orient="auto-start-reverse">
      <path d="M 0 1.5 L 8 5 L 0 8.5 z" fill="#2563eb" />
    </marker>
    <marker id="arrowGreen" viewBox="0 0 10 10" refX="6" refY="5" markerWidth="6" markerHeight="6" orient="auto-start-reverse">
      <path d="M 0 1.5 L 8 5 L 0 8.5 z" fill="#059669" />
    </marker>
    <marker id="arrowAmber" viewBox="0 0 10 10" refX="6" refY="5" markerWidth="6" markerHeight="6" orient="auto-start-reverse">
      <path d="M 0 1.5 L 8 5 L 0 8.5 z" fill="#d97706" />
    </marker>
    <marker id="arrowRed" viewBox="0 0 10 10" refX="6" refY="5" markerWidth="6" markerHeight="6" orient="auto-start-reverse">
      <path d="M 0 1.5 L 8 5 L 0 8.5 z" fill="#dc2626" />
    </marker>
    <marker id="arrowPurple" viewBox="0 0 10 10" refX="6" refY="5" markerWidth="6" markerHeight="6" orient="auto-start-reverse">
      <path d="M 0 1.5 L 8 5 L 0 8.5 z" fill="#7c3aed" />
    </marker>
  </defs>

  <rect width="100%" height="100%" rx="14" fill="#f8fafc" stroke="#e2e8f0" stroke-width="1.5" />
  
  <g transform="translate(24, 28)">
    <circle cx="5" cy="0" r="4" fill="#2563eb" />
    <text x="16" y="4" fill="#334155" font-size="13" font-weight="700">다이어그램 8.1: 로컬 웹앱과 퍼블릭 클라우드 배포 비교</text>
  </g>

  
  <g transform="translate(25, 48)">
    <rect x="0" y="0" width="370" height="70" rx="8" fill="#ffffff" stroke="#cbd5e1" stroke-width="1.5" filter="url(#softShadow)"/>
    <text x="16" y="28" fill="#0f172a" font-size="12" font-weight="700">로컬 환경 (localhost / 127.0.0.1)</text>
    <text x="16" y="50" fill="#64748b" font-size="11">👤 내 컴퓨터만 접속 가능 (PC 끄면 종료 / 사내 보안 도구)</text>

    <rect x="395" y="0" width="375" height="70" rx="8" fill="#eff6ff" stroke="#93c5fd" stroke-width="1.5" filter="url(#softShadow)"/>
    <text x="411" y="28" fill="#1d4ed8" font-size="12" font-weight="700">퍼블릭 환경 (Vercel Cloud)</text>
    <text x="411" y="50" fill="#2563eb" font-size="11">👥 전 세계 어디서나 URL 접속 (HTTPS 자동 / 상시 가동)</text>
  </g>

</svg>